<svg width="19" height="18" viewBox="0 0 19 18" fill="none" xmlns="http://www.w3.org/2000/svg">
<path d="M5 16.5V3C5 2.60218 5.15804 2.22064 5.43934 1.93934C5.72064 1.65804 6.10218 1.5 6.5 1.5H12.5C12.8978 1.5 13.2794 1.65804 13.5607 1.93934C13.842 2.22064 14 2.60218 14 3V16.5H5Z" stroke="#1F2937" stroke-linecap="round" stroke-linejoin="round"/>
<path d="M5 9H3.5C3.10218 9 2.72064 9.15804 2.43934 9.43934C2.15804 9.72064 2 10.1022 2 10.5V15C2 15.3978 2.15804 15.7794 2.43934 16.0607C2.72064 16.342 3.10218 16.5 3.5 16.5H5" stroke="#1F2937" stroke-linecap="round" stroke-linejoin="round"/>
<path d="M14 6.75H15.5C15.8978 6.75 16.2794 6.90804 16.5607 7.18934C16.842 7.47064 17 7.85218 17 8.25V15C17 15.3978 16.842 15.7794 16.5607 16.0607C16.2794 16.342 15.8978 16.5 15.5 16.5H14" stroke="#1F2937" stroke-linecap="round" stroke-linejoin="round"/>
<path d="M8 4.5H11" stroke="#1F2937" stroke-linecap="round" stroke-linejoin="round"/>
<path d="M8 7.5H11" stroke="#1F2937" stroke-linecap="round" stroke-linejoin="round"/>
<path d="M8 10.5H11" stroke="#1F2937" stroke-linecap="round" stroke-linejoin="round"/>
<path d="M8 13.5H11" stroke="#1F2937" stroke-linecap="round" stroke-linejoin="round"/>
</svg>
