<svg width="25" height="26" viewBox="0 0 25 26" fill="none" xmlns="http://www.w3.org/2000/svg">
<path d="M12.5024 7.79151C13.8838 7.79151 15.2086 8.34026 16.1854 9.31704C17.1622 10.2938 17.7109 11.6186 17.7109 13M11.4609 3.68751C11.8065 3.64537 12.1543 3.6245 12.5024 3.62501C14.9888 3.62501 17.3734 4.61273 19.1316 6.37088C20.8897 8.12904 21.8774 10.5136 21.8774 13C21.8774 13.3483 21.8566 13.6955 21.8149 14.0415" stroke="white" stroke-linecap="round" stroke-linejoin="round"/>
<path d="M15.6237 22.3751C14.0089 21.9901 12.4772 21.3159 11.1027 20.3851L12.9987 17.6671C13.3104 17.2418 13.7718 16.9504 14.2899 16.8519C14.8079 16.7533 15.3441 16.8549 15.7902 17.1361C16.1342 17.3546 16.4882 17.5526 16.8322 17.7506C17.0909 17.8771 17.3206 18.0559 17.5068 18.2757C17.6929 18.4955 17.8315 18.7515 17.9137 19.0275C17.996 19.3035 18.02 19.5936 17.9845 19.8795C17.949 20.1653 17.8545 20.4406 17.7072 20.6881L17.0612 21.6781C16.9455 21.9478 16.7365 22.1668 16.4725 22.2949C16.2085 22.423 15.9071 22.4512 15.6237 22.3751ZM3.82169 8.4901L4.86319 7.8436C5.10478 7.68682 5.37624 7.58182 5.66044 7.53524C5.94465 7.48866 6.23542 7.50151 6.51441 7.57297C6.7934 7.64444 7.05455 7.77296 7.28136 7.95044C7.50818 8.12791 7.69573 8.35048 7.83219 8.6041C8.03019 8.9791 8.22769 9.3336 8.44669 9.6461C8.72783 10.0923 8.82932 10.6285 8.73068 11.1465C8.63204 11.6646 8.34062 12.126 7.91519 12.4376L5.14469 14.3646C4.20641 13.0019 3.52177 11.481 3.12369 9.8751C3.0614 9.59912 3.09696 9.31006 3.22429 9.05741C3.35162 8.80476 3.5628 8.60421 3.82169 8.4901Z" stroke="white" stroke-linecap="round" stroke-linejoin="round"/>
<path d="M5.14844 14.3652C5.91425 15.5655 6.81605 16.6733 7.83594 17.6667C8.82951 18.6867 9.93751 19.5885 11.1379 20.3542" stroke="white" stroke-linecap="round" stroke-linejoin="round"/>
</svg>
