<svg width="19" height="18" viewBox="0 0 19 18" fill="none" xmlns="http://www.w3.org/2000/svg">
<path d="M3.5 15H15.5C15.8978 15 16.2794 14.842 16.5607 14.5607C16.842 14.2794 17 13.8978 17 13.5V6C17 5.60218 16.842 5.22064 16.5607 4.93934C16.2794 4.65804 15.8978 4.5 15.5 4.5H9.5525C9.30544 4.49872 9.06252 4.43644 8.84532 4.31868C8.62813 4.20092 8.44338 4.03134 8.3075 3.825L7.6925 2.925C7.55662 2.71866 7.37187 2.54908 7.15468 2.43132C6.93748 2.31356 6.69456 2.25128 6.4475 2.25H3.5C3.10218 2.25 2.72064 2.40804 2.43934 2.68934C2.15804 2.97064 2 3.35218 2 3.75V13.5C2 14.325 2.675 15 3.5 15Z" stroke="#1F2937" stroke-linecap="round" stroke-linejoin="round"/>
<path d="M6.5 7.5V10.5" stroke="#1F2937" stroke-linecap="round" stroke-linejoin="round"/>
<path d="M9.5 7.5V9" stroke="#1F2937" stroke-linecap="round" stroke-linejoin="round"/>
<path d="M12.5 7.5V12" stroke="#1F2937" stroke-linecap="round" stroke-linejoin="round"/>
</svg>
