<svg width="19" height="18" viewBox="0 0 19 18" fill="none" xmlns="http://www.w3.org/2000/svg">
<path d="M3.875 12.375C2.75 13.32 2.375 16.125 2.375 16.125C2.375 16.125 5.18 15.75 6.125 14.625C6.6575 13.995 6.65 13.0275 6.0575 12.4425C5.76598 12.1643 5.38197 12.0035 4.97917 11.991C4.57637 11.9786 4.18316 12.1153 3.875 12.375Z" stroke="#1F2937" stroke-linecap="round" stroke-linejoin="round"/>
<path d="M9.5 11.2499L7.25 8.99994C7.64911 7.96451 8.15165 6.97199 8.75 6.03744C9.62389 4.64018 10.8407 3.48973 12.2848 2.69551C13.7288 1.90129 15.352 1.48972 17 1.49994C17 3.53994 16.415 7.12494 12.5 9.74994C11.5527 10.349 10.5476 10.8515 9.5 11.2499Z" stroke="#1F2937" stroke-linecap="round" stroke-linejoin="round"/>
<path d="M7.25 8.99989H3.5C3.5 8.99989 3.9125 6.72739 5 5.99989C6.215 5.18989 8.75 5.99989 8.75 5.99989" stroke="#1F2937" stroke-linecap="round" stroke-linejoin="round"/>
<path d="M9.5 11.25V15C9.5 15 11.7725 14.5875 12.5 13.5C13.31 12.285 12.5 9.75 12.5 9.75" stroke="#1F2937" stroke-linecap="round" stroke-linejoin="round"/>
</svg>
