<svg width="24" height="24" viewBox="0 0 24 24" fill="none" xmlns="http://www.w3.org/2000/svg">
<path d="M1.74973 3.49131C1.51402 2.60846 2.42088 1.85417 3.24631 2.2476L21.6732 11.0325C22.4866 11.4199 22.4866 12.5787 21.6732 12.9662L3.24545 21.7519C2.42002 22.1445 1.51316 21.3902 1.74888 20.5073L4.02716 11.9993L1.74973 3.49131ZM5.18516 12.6422L3.11259 20.3907L20.714 11.9993L3.11259 3.60789L5.18516 11.3565H14.7843C14.9548 11.3565 15.1183 11.4242 15.2389 11.5447C15.3594 11.6653 15.4272 11.8288 15.4272 11.9993C15.4272 12.1698 15.3594 12.3333 15.2389 12.4539C15.1183 12.5744 14.9548 12.6422 14.7843 12.6422H5.18516Z" fill="#203C30"/>
</svg>
